<svg xmlns="http://www.w3.org/2000/svg" viewBox="0 0 100 100" preserveAspectRatio="xMidYMid" width="216" height="216" style="shape-rendering: auto; display: block; background: transparent;" xmlns:xlink="http://www.w3.org/1999/xlink"><g><g transform="translate(50 50)">
<g>
<animateTransform repeatCount="indefinite" dur="0.1996007984031936s" keyTimes="0;1" values="0;45" type="rotate" attributeName="transform"></animateTransform><path fill="#ffbf00" d="M11.989578808281804 -27.5 L14.989578808281804 -27.5 L14.989578808281804 27.5 L11.989578808281804 27.5 A30 30 0 0 1 27.923348961536643 -10.967524003723467 L27.923348961536643 -10.967524003723467 L30.044669305096285 -8.846203660163823 L-8.846203660163823 30.04466930509629 L-10.967524003723465 27.923348961536647 A30 30 0 0 1 27.5 11.989578808281802 L27.5 11.989578808281802 L27.5 14.989578808281802 L-27.499999999999996 14.989578808281806 L-27.499999999999996 11.989578808281806 A30 30 0 0 1 10.967524003723469 27.923348961536643 L10.967524003723469 27.923348961536643 L8.846203660163827 30.044669305096285 L-30.04466930509629 -8.84620366016382 L-27.923348961536647 -10.967524003723463 A30 30 0 0 1 -11.9895788082818 27.5 L-11.9895788082818 27.5 L-14.9895788082818 27.5 L-14.989578808281808 -27.499999999999996 L-11.989578808281808 -27.499999999999996 A30 30 0 0 1 -27.923348961536643 10.96752400372347 L-27.923348961536643 10.96752400372347 L-30.044669305096285 8.846203660163829 L8.84620366016382 -30.04466930509629 L10.967524003723462 -27.923348961536647 A30 30 0 0 1 -27.5 -11.989578808281799 L-27.5 -11.989578808281799 L-27.5 -14.989578808281799 L27.499999999999996 -14.98957880828181 L27.499999999999996 -11.98957880828181 A30 30 0 0 1 -10.967524003723472 -27.923348961536643 L-10.967524003723472 -27.923348961536643 L-8.84620366016383 -30.044669305096285 L30.04466930509629 8.846203660163816 L27.923348961536647 10.96752400372346 A30 30 0 0 1 11.989578808281797 -27.500000000000004 M0 -21A21 21 0 1 0 0 21 A21 21 0 1 0 0 -21"></path></g></g><g></g></g><!-- [ldio] generated by https://loading.io --></svg>